<svg id="Layer_1" data-name="Layer 1" xmlns="http://www.w3.org/2000/svg" width="64" height="64" viewBox="0 0 64 64"><title>bitcoin-01</title><path d="M44.41,30.13a11,11,0,0,0,3.18-7.77,11.19,11.19,0,0,0-9.46-11V7.66a2.72,2.72,0,0,0-5.43,0v3.56H29.33V7.66a2.72,2.72,0,0,0-5.43,0v3.56H18.75A2.72,2.72,0,0,0,16,13.93L15.76,50a3,3,0,0,0,.75,2,2.92,2.92,0,0,0,2,.84H23.9v3.56a2.72,2.72,0,1,0,5.43,0V52.69H32.7v3.65a2.72,2.72,0,0,0,5.43,0V52.69A12.26,12.26,0,0,0,44.41,30.13ZM21.47,16.65h15a5.71,5.71,0,1,1,0,11.42H21.37ZM37.76,47.26H21.19L21.28,33.5H36.92a2.06,2.06,0,0,0,.75.09,6.87,6.87,0,0,1,6.83,6.83A6.79,6.79,0,0,1,37.76,47.26Z"/></svg>